<svg xmlns="http://www.w3.org/2000/svg" width="82.016" height="115.765" viewBox="0 0 82.016 115.765"><defs><style>.a{fill:#264de4;}.b{fill:#2965f1;}.c{fill:#ebebeb;}.d{fill:#fff;}</style></defs><g transform="translate(0 0)"><path class="a" d="M156.649,100.62l-7.472,83.7-33.586,9.311-33.494-9.3L74.633,100.62Z" transform="translate(-74.633 -77.869)"/><path class="b" d="M283.139,202.422l6.385-71.528H256v79.053Z" transform="translate(-214.992 -101.298)"/><path class="c" d="M150.31,268.217l.92,10.267h22.977V268.217Z" transform="translate(-133.199 -207.572)"/><path class="c" d="M167.878,176.3H142.132l.933,10.268h24.813Z" transform="translate(-126.87 -136.442)"/><path class="c" d="M178.927,358.28V347.6l-.045.012-11.435-3.088-.731-8.189H156.409l1.438,16.121,21.032,5.839Z" transform="translate(-137.919 -260.287)"/><path d="M160,0h12.436V5.2H165.2v5.2h7.235v5.2H160Z" transform="translate(-140.698)"/><path d="M226,0h12.436V4.522H231.2v.9h7.235v10.4H226V11.079h7.235v-.9H226Z" transform="translate(-191.775)"/><path d="M292,0h12.436V4.522H297.2v.9h7.235v10.4H292V11.079h7.235v-.9H292Z" transform="translate(-242.852)"/><path class="d" d="M268.486,207.354l-1.192,13.316-11.451,3.091v10.682l21.049-5.834.154-1.735,2.413-27.031.251-2.757,1.854-20.782h-25.72v10.268h14.468l-.934,10.514H255.843v10.267Z" transform="translate(-214.871 -136.442)"/></g></svg>