<svg xmlns="http://www.w3.org/2000/svg" width="63.443" height="95.164" viewBox="0 0 63.443 95.164"><defs><style>.a{fill:rgba(0,0,0,0);}.b{fill:#1abcfe;}.c{fill:#0acf83;}.d{fill:#ff7262;}.e{fill:#f24e1e;}.f{fill:#a259ff;}</style></defs><rect class="a" width="63.442" height="95.164" transform="translate(0 0)"/><path class="b" d="M144,160.594a15.861,15.861,0,0,1,15.861-15.861h0a15.861,15.861,0,0,1,15.861,15.861h0a15.861,15.861,0,0,1-15.861,15.861h0A15.861,15.861,0,0,1,144,160.594Z" transform="translate(-112.279 -113.012)"/><path class="c" d="M1.466,303.128a15.861,15.861,0,0,1,15.861-15.861H33.187v15.861a15.861,15.861,0,0,1-15.861,15.861h0A15.861,15.861,0,0,1,1.466,303.128Z" transform="translate(-1.466 -223.825)"/><path class="d" d="M144,2.2V33.921h15.861A15.861,15.861,0,0,0,175.721,18.06h0A15.861,15.861,0,0,0,159.861,2.2Z" transform="translate(-112.279 -2.199)"/><path class="e" d="M1.466,18.06A15.861,15.861,0,0,0,17.327,33.921H33.187V2.2H17.327A15.861,15.861,0,0,0,1.466,18.06Z" transform="translate(-1.466 -2.199)"/><path class="f" d="M1.466,160.594a15.861,15.861,0,0,0,15.861,15.861H33.187V144.733H17.327A15.861,15.861,0,0,0,1.466,160.594Z" transform="translate(-1.466 -113.012)"/></svg>