<svg xmlns="http://www.w3.org/2000/svg" width="82.031" height="115.765" viewBox="0 0 82.031 115.765"><defs><style>.a{fill:#e44d26;}.b{fill:#f16529;}.c{fill:#ebebeb;}.d{fill:#fff;}</style></defs><path d="M108.4,0h5.2V5.155h4.793V0h5.2V15.6h-5.2V10.4h-4.748v5.2H108.4M130.468,5.2h-4.59V0h14.4V5.2h-4.613V15.6h-5.2M142.564,0h5.449l3.346,5.494L154.706,0h5.449V15.6h-5.2V7.868l-3.64,5.607-3.64-5.607V15.6h-5.11M162.733,0h5.2V10.446H175.3V15.6H162.733" transform="translate(-100.758)"/><path class="a" d="M82.061,184.349,74.6,100.6h82.031l-7.461,83.7-33.622,9.315" transform="translate(-74.6 -77.854)"/><path class="b" d="M256,210.023V131h33.531l-6.4,71.449" transform="translate(-214.985 -101.38)"/><path class="c" d="M142,176.3h25.776v10.265H153.26l.95,10.514h13.566v10.243H144.8m.452,5.155h10.31l.724,8.208,11.486,3.075v10.717L146.7,228.6" transform="translate(-126.761 -136.438)"/><path class="d" d="M281.531,176.3H255.8v10.265h24.781m-.927,10.514H255.8v10.265h12.662l-1.2,13.34L255.8,223.759v10.672l21.028-5.833" transform="translate(-214.83 -136.438)"/></svg>