<svg xmlns="http://www.w3.org/2000/svg" width="89" height="90" viewBox="0 0 89 90"><defs><style>.a{fill:#f7df1e;}</style></defs><g transform="translate(-0.365 0.102)"><rect class="a" width="89" height="90" transform="translate(0.365 -0.102)"/><path d="M202.506,315.254c1.806,2.949,4.156,5.117,8.312,5.117,3.491,0,5.722-1.745,5.722-4.156,0-2.889-2.292-3.913-6.135-5.594l-2.107-.9c-6.081-2.591-10.12-5.836-10.12-12.7,0-6.32,4.815-11.131,12.341-11.131,5.358,0,9.209,1.865,11.985,6.747l-6.562,4.213c-1.445-2.591-3-3.611-5.423-3.611-2.468,0-4.032,1.566-4.032,3.611,0,2.528,1.566,3.551,5.181,5.117l2.107.9c7.16,3.07,11.2,6.2,11.2,13.237,0,7.587-5.96,11.743-13.963,11.743-7.826,0-12.881-3.729-15.355-8.617Zm-29.767.73c1.324,2.349,2.528,4.334,5.423,4.334,2.768,0,4.515-1.083,4.515-5.295V286.371H191.1v28.766c0,8.725-5.116,12.7-12.583,12.7-6.747,0-10.654-3.491-12.641-7.7Z" transform="translate(-142.096 -245.246)"/></g></svg>