<svg xmlns="http://www.w3.org/2000/svg" width="31.827" height="31.827" viewBox="0 0 31.827 31.827"><defs><style>.a{fill:#2867bc;}</style></defs><path class="a" d="M29.554,32H2.266A2.283,2.283,0,0,0,0,34.295V61.532a2.283,2.283,0,0,0,2.266,2.295H29.554a2.289,2.289,0,0,0,2.273-2.295V34.295A2.289,2.289,0,0,0,29.554,32ZM9.619,59.28H4.9V44.091H9.626V59.28ZM7.261,42.017A2.735,2.735,0,1,1,10,39.282,2.736,2.736,0,0,1,7.261,42.017ZM27.3,59.28H22.584V51.892c0-1.762-.036-4.028-2.451-4.028-2.458,0-2.835,1.918-2.835,3.9V59.28H12.582V44.091h4.525v2.074h.064a4.969,4.969,0,0,1,4.469-2.451c4.774,0,5.662,3.147,5.662,7.239Z" transform="translate(0 -32)"/></svg>