<svg xmlns="http://www.w3.org/2000/svg" width="33.247" height="24.936" viewBox="0 0 33.247 24.936"><defs><style>.a{fill:#050505;}</style></defs><path class="a" d="M4.156,67.117a1.042,1.042,0,0,0-1.039,1.039v1.435l11.2,9.195a3.632,3.632,0,0,0,4.617,0L30.13,69.591V68.156a1.042,1.042,0,0,0-1.039-1.039ZM3.117,73.624V84.78a1.042,1.042,0,0,0,1.039,1.039H29.091A1.042,1.042,0,0,0,30.13,84.78V73.624L20.909,81.2a6.754,6.754,0,0,1-8.572,0ZM0,68.156A4.16,4.16,0,0,1,4.156,64H29.091a4.16,4.16,0,0,1,4.156,4.156V84.78a4.16,4.16,0,0,1-4.156,4.156H4.156A4.16,4.16,0,0,1,0,84.78Z" transform="translate(0 -64)"/></svg>