<svg xmlns="http://www.w3.org/2000/svg" width="84.303" height="82.195" viewBox="0 0 84.303 82.195"><defs><style>.a{fill:#001e36;}.b{fill:#31a8ff;}</style></defs><path class="a" d="M14.929,0H69.374A14.916,14.916,0,0,1,84.3,14.929V67.267A14.916,14.916,0,0,1,69.374,82.2H14.929A14.916,14.916,0,0,1,0,67.267V14.929A14.916,14.916,0,0,1,14.929,0Z"/><g transform="translate(18.968 20.9)"><path class="b" d="M54,96.242V60.1c0-.246.105-.386.351-.386.6,0,1.159,0,1.967-.035.843-.035,1.721-.035,2.67-.07s1.967-.035,3.056-.07,2.143-.035,3.2-.035a20.654,20.654,0,0,1,7.236,1.089,12.544,12.544,0,0,1,4.707,2.88,11.184,11.184,0,0,1,2.564,4,13.444,13.444,0,0,1,.808,4.566,12.558,12.558,0,0,1-2.108,7.482,12.034,12.034,0,0,1-5.655,4.285A22.765,22.765,0,0,1,64.889,85c-.843,0-1.405,0-1.756-.035s-.843-.035-1.51-.035V96.207a.437.437,0,0,1-.386.492H54.422C54.141,96.7,54,96.558,54,96.242ZM61.658,66.49v11.8c.492.035.948.07,1.37.07h1.862a13.121,13.121,0,0,0,4.04-.632,6.041,6.041,0,0,0,2.88-1.862A5.428,5.428,0,0,0,72.9,72.251a5.781,5.781,0,0,0-.808-3.126,5.094,5.094,0,0,0-2.459-2,10.307,10.307,0,0,0-4.145-.7c-.913,0-1.721,0-2.389.035a8.043,8.043,0,0,0-1.44.035Z" transform="translate(-54 -59.5)"/><path class="b" d="M158.452,92.239a12.432,12.432,0,0,0-3.372-1.194,18.517,18.517,0,0,0-3.934-.457,7.073,7.073,0,0,0-2.108.246,1.8,1.8,0,0,0-1.089.7,1.862,1.862,0,0,0-.281.948,1.562,1.562,0,0,0,.351.913,3.964,3.964,0,0,0,1.194.948c.808.422,1.651.808,2.494,1.159a25.442,25.442,0,0,1,5.409,2.564,8.173,8.173,0,0,1,2.775,2.915,7.583,7.583,0,0,1,.808,3.618,8.173,8.173,0,0,1-1.37,4.672A8.8,8.8,0,0,1,155.4,112.4a16.094,16.094,0,0,1-6.358,1.124,24.2,24.2,0,0,1-4.777-.457,14.17,14.17,0,0,1-3.583-1.124.691.691,0,0,1-.386-.667v-6.112a.381.381,0,0,1,.141-.316.267.267,0,0,1,.316.035,15.036,15.036,0,0,0,4.356,1.721,16.352,16.352,0,0,0,4.145.527,6.7,6.7,0,0,0,2.915-.492,1.632,1.632,0,0,0,.948-1.475,1.861,1.861,0,0,0-.843-1.405,14.9,14.9,0,0,0-3.442-1.651,21.491,21.491,0,0,1-4.988-2.529,9.1,9.1,0,0,1-2.67-2.986,7.537,7.537,0,0,1-.808-3.583,8.262,8.262,0,0,1,1.194-4.25,8.659,8.659,0,0,1,3.688-3.232,13.621,13.621,0,0,1,6.217-1.229,30.282,30.282,0,0,1,4.356.316,12.359,12.359,0,0,1,3.021.808.617.617,0,0,1,.351.316,1.762,1.762,0,0,1,.07.422v5.726a.432.432,0,0,1-.176.351A.936.936,0,0,1,158.452,92.239Z" transform="translate(-109.978 -75.589)"/></g></svg>