<svg xmlns="http://www.w3.org/2000/svg" width="96.011" height="90.367" viewBox="0 0 96.011 90.367"><defs><style>.a{fill:rgba(255,255,255,0);}.b{fill:#61dafb;}</style></defs><g transform="translate(-1069.989 -121)"><rect class="a" width="96" height="90" transform="translate(1070 121)"/><g transform="translate(1069.989 126)"><path class="b" d="M271.559,120.693c0-6.35-7.952-12.368-20.145-16.1,2.814-12.427,1.563-22.314-3.947-25.479a8.567,8.567,0,0,0-4.377-1.094v4.357a4.524,4.524,0,0,1,2.227.508c2.657,1.524,3.81,7.327,2.911,14.791-.215,1.837-.567,3.771-1,5.745a94.691,94.691,0,0,0-12.407-2.13,95.31,95.31,0,0,0-8.128-9.77c6.37-5.92,12.349-9.164,16.413-9.164V78c-5.373,0-12.407,3.83-19.52,10.473-7.112-6.6-14.146-10.395-19.52-10.395v4.357c4.045,0,10.043,3.224,16.413,9.105a92.284,92.284,0,0,0-8.07,9.75,91.244,91.244,0,0,0-12.427,2.149c-.449-1.954-.782-3.849-1.016-5.666-.918-7.464.215-13.267,2.853-14.811a4.349,4.349,0,0,1,2.247-.508V78.1a8.712,8.712,0,0,0-4.416,1.094c-5.491,3.165-6.721,13.033-3.888,25.42-12.153,3.752-20.067,9.75-20.067,16.081,0,6.35,7.952,12.368,20.145,16.1-2.814,12.427-1.563,22.314,3.947,25.479a8.589,8.589,0,0,0,4.4,1.094c5.373,0,12.407-3.83,19.52-10.473,7.112,6.6,14.146,10.395,19.52,10.395a8.712,8.712,0,0,0,4.416-1.094c5.491-3.165,6.721-13.033,3.888-25.421,12.114-3.732,20.028-9.75,20.028-16.081Zm-25.44-13.033c-.723,2.521-1.622,5.119-2.638,7.718-.8-1.563-1.641-3.126-2.56-4.689-.9-1.563-1.856-3.087-2.814-4.572C240.883,106.527,243.56,107.035,246.119,107.661ZM237.17,128.47c-1.524,2.638-3.087,5.139-4.709,7.464-2.911.254-5.862.391-8.832.391-2.95,0-5.9-.137-8.793-.371q-2.433-3.488-4.729-7.425-2.227-3.839-4.064-7.777c1.211-2.618,2.579-5.236,4.045-7.8,1.524-2.638,3.087-5.139,4.709-7.464,2.911-.254,5.862-.391,8.832-.391,2.95,0,5.9.137,8.793.371q2.433,3.488,4.728,7.425,2.227,3.839,4.064,7.777C239.984,123.292,238.636,125.91,237.17,128.47Zm6.311-2.54c1.055,2.618,1.954,5.237,2.7,7.777-2.56.625-5.256,1.153-8.05,1.563.957-1.5,1.915-3.048,2.814-4.631C241.84,129.075,242.68,127.493,243.482,125.93Zm-19.813,20.848a80.549,80.549,0,0,1-5.432-6.253c1.759.078,3.556.137,5.373.137,1.837,0,3.654-.039,5.432-.137A76.264,76.264,0,0,1,223.669,146.778Zm-14.537-11.509c-2.775-.41-5.451-.918-8.011-1.544.723-2.521,1.622-5.119,2.638-7.718.8,1.563,1.641,3.126,2.56,4.689S208.174,133.784,209.132,135.269Zm14.439-40.661A80.552,80.552,0,0,1,229,100.861c-1.759-.078-3.556-.137-5.373-.137-1.837,0-3.654.039-5.432.137A76.263,76.263,0,0,1,223.571,94.608Zm-14.459,11.509c-.957,1.5-1.915,3.048-2.814,4.631-.9,1.563-1.739,3.126-2.54,4.689-1.055-2.618-1.954-5.237-2.7-7.777,2.56-.606,5.256-1.133,8.05-1.544ZM191.429,130.58c-6.917-2.95-11.391-6.819-11.391-9.887s4.474-6.956,11.391-9.887c1.68-.723,3.517-1.368,5.412-1.973a93.845,93.845,0,0,0,4.4,11.9,92.522,92.522,0,0,0-4.338,11.841C194.966,131.967,193.129,131.3,191.429,130.58ZM201.941,158.5c-2.657-1.524-3.81-7.327-2.911-14.791.215-1.837.567-3.771,1-5.745a94.69,94.69,0,0,0,12.407,2.13,95.315,95.315,0,0,0,8.128,9.77c-6.37,5.92-12.349,9.164-16.413,9.164A4.663,4.663,0,0,1,201.941,158.5Zm46.347-14.889c.918,7.464-.215,13.267-2.853,14.811a4.349,4.349,0,0,1-2.247.508c-4.045,0-10.043-3.224-16.413-9.105a92.286,92.286,0,0,0,8.07-9.75,91.242,91.242,0,0,0,12.427-2.149A54.692,54.692,0,0,1,248.288,143.613Zm7.523-13.033c-1.68.723-3.517,1.368-5.412,1.973a93.842,93.842,0,0,0-4.4-11.9,92.523,92.523,0,0,0,4.338-11.841c1.934.606,3.771,1.27,5.49,1.993,6.917,2.95,11.391,6.819,11.391,9.887-.02,3.068-4.494,6.956-11.411,9.887Z" transform="translate(-175.7 -78)"/><circle class="b" cx="8.929" cy="8.929" r="8.929" transform="translate(38.981 33.764)"/></g></g></svg>