<svg xmlns="http://www.w3.org/2000/svg" width="90.137" height="90.137" viewBox="0 0 90.137 90.137"><defs><style>.a{fill:#00749a;}</style></defs><path class="a" d="M6.366,45.068A38.478,38.478,0,0,0,28.055,79.85L9.8,29.393A39.229,39.229,0,0,0,6.366,45.068Zm64.828-1.96a19.9,19.9,0,0,0-3.267-10.614c-1.96-3.267-3.755-5.879-3.755-9.143a6.73,6.73,0,0,1,6.535-6.859h.49A38.1,38.1,0,0,0,45.068,6.366,39.294,39.294,0,0,0,12.737,23.838h2.451c4.084,0,10.287-.49,10.287-.49,2.124-.163,2.287,2.938.327,3.267a32.851,32.851,0,0,1-4.408.327l14.044,41.8,8.49-25.311L37.886,26.94,33.8,26.618c-2.124-.163-1.8-3.267.163-3.267,0,0,6.366.49,10.123.49,4.084,0,10.287-.49,10.287-.49,2.124-.163,2.287,2.938.327,3.267a32.851,32.851,0,0,1-4.408.327L64.335,68.588l3.943-12.9c1.634-5.388,2.938-9.143,2.938-12.574ZM45.722,48.5,34.128,82.137a40.244,40.244,0,0,0,10.94,1.634,42.733,42.733,0,0,0,12.9-2.124c-.163-.163-.163-.327-.327-.49ZM79.033,26.618l.327,3.943a35.236,35.236,0,0,1-2.938,13.881L64.665,78.571A38.77,38.77,0,0,0,83.931,45.1a41.331,41.331,0,0,0-4.9-18.45ZM45.068,0A45.068,45.068,0,1,0,90.137,45.068,45.157,45.157,0,0,0,45.068,0Zm0,88.176A43.026,43.026,0,1,1,88.013,45.068,43.031,43.031,0,0,1,45.068,88.176Z"/></svg>