<svg xmlns="http://www.w3.org/2000/svg" width="84.303" height="82.195" viewBox="0 0 84.303 82.195"><defs><style>.a{fill:#470137;}.b{fill:#ff61f6;}</style></defs><path class="a" d="M14.929,0H69.374A14.916,14.916,0,0,1,84.3,14.929V67.267A14.916,14.916,0,0,1,69.374,82.2H14.929A14.916,14.916,0,0,1,0,67.267V14.929A14.916,14.916,0,0,1,14.929,0Z"/><g transform="translate(12.28 18.014)"><path class="b" d="M67.01,60.527,56.472,77.914l11.24,18.441a.6.6,0,0,1,.07.422c-.035.14-.176.035-.386.07H59.352c-.562,0-.948-.035-1.194-.386-.738-1.475-1.51-2.915-2.248-4.391-.738-1.44-1.546-2.915-2.389-4.426s-1.686-3.021-2.529-4.566h-.07c-.738,1.51-1.546,3.021-2.353,4.531s-1.616,3.021-2.389,4.5c-.808,1.475-1.616,2.986-2.424,4.426-.141.351-.422.386-.808.386H35.22c-.141,0-.246.07-.246-.105a.488.488,0,0,1,.07-.386L45.969,78.511,35.326,60.492c-.105-.141-.141-.281-.07-.351A.407.407,0,0,1,35.607,60H43.58a2.073,2.073,0,0,1,.492.07,1,1,0,0,1,.351.316c.667,1.51,1.44,3.021,2.248,4.531.843,1.51,1.651,2.986,2.529,4.461.843,1.475,1.616,2.951,2.353,4.461h.07c.738-1.546,1.51-3.056,2.283-4.531s1.581-2.951,2.389-4.426,1.581-2.986,2.353-4.426a.6.6,0,0,1,.211-.351.67.67,0,0,1,.457-.07h7.412a.324.324,0,0,1,.386.246c.035.035-.035.176-.105.246Z" transform="translate(-34.961 -56.939)"/><path class="b" d="M145.086,91.931a17.463,17.463,0,0,1-7.552-1.581,12.246,12.246,0,0,1-5.3-4.777,15.2,15.2,0,0,1-1.932-8.009,14.427,14.427,0,0,1,1.932-7.412,14.587,14.587,0,0,1,5.585-5.445,17.968,17.968,0,0,1,8.887-2.037,6.272,6.272,0,0,1,.738.035c.316.035.667.035,1.089.07v-11.1c0-.246.105-.386.351-.386h7.131a.315.315,0,0,1,.351.246v33.51c0,.632.035,1.335.07,2.108.07.738.105,1.44.14,2.037a.57.57,0,0,1-.351.562,26.827,26.827,0,0,1-5.726,1.686A30.985,30.985,0,0,1,145.086,91.931Zm3.442-7.025V69.45a8.983,8.983,0,0,0-.948-.176c-.386-.035-.773-.07-1.159-.07a8.659,8.659,0,0,0-3.969.913,7.874,7.874,0,0,0-2.986,2.6,7.786,7.786,0,0,0-1.159,4.461,9.788,9.788,0,0,0,.6,3.618,6.865,6.865,0,0,0,1.581,2.494,6.068,6.068,0,0,0,2.389,1.405,9.194,9.194,0,0,0,2.915.457c.527,0,1.019-.035,1.475-.07A3.072,3.072,0,0,0,148.528,84.906Z" transform="translate(-96.809 -51.284)"/></g></svg>